<svg width="62" height="62" viewBox="0 0 62 62" fill="none" xmlns="http://www.w3.org/2000/svg">
<path d="M27.5556 3.44444C27.5556 3.44444 27.5556 0 31 0C34.4444 0 34.4444 3.44444 34.4444 3.44444V6.88889C34.4444 6.88889 34.4444 10.3333 31 10.3333C27.5556 10.3333 27.5556 6.88889 27.5556 6.88889V3.44444ZM58.5556 27.5556C58.5556 27.5556 62 27.5556 62 31C62 34.4444 58.5556 34.4444 58.5556 34.4444H55.1111C55.1111 34.4444 51.6667 34.4444 51.6667 31C51.6667 27.5556 55.1111 27.5556 55.1111 27.5556H58.5556ZM6.88889 27.5556C6.88889 27.5556 10.3333 27.5556 10.3333 31C10.3333 34.4444 6.88889 34.4444 6.88889 34.4444H3.44444C3.44444 34.4444 0 34.4444 0 31C0 27.5556 3.44444 27.5556 3.44444 27.5556H6.88889ZM15.7084 12.5602C15.7084 12.5602 18.1436 14.9954 15.7084 17.4306C13.2732 19.8658 10.8379 17.4306 10.8379 17.4306L8.401 14.9971C8.401 14.9971 5.96578 12.5619 8.401 10.1249C10.8379 7.68972 13.2732 10.1249 13.2732 10.1249L15.7084 12.5602ZM51.8751 48.7268C51.8751 48.7268 54.3103 51.1621 51.8751 53.5973C49.4398 56.0325 47.0046 53.5973 47.0046 53.5973L44.5694 51.1621C44.5694 51.1621 42.1342 48.7268 44.5694 46.2916C47.0046 43.8564 49.4398 46.2916 49.4398 46.2916L51.8751 48.7268ZM51.1638 17.4306C51.1638 17.4306 48.7286 19.8658 46.2933 17.4306C43.8581 14.9954 46.2933 12.5602 46.2933 12.5602L48.7286 10.1249C48.7286 10.1249 51.1638 7.68972 53.599 10.1249C56.0342 12.5602 53.599 14.9954 53.599 14.9954L51.1638 17.4306ZM14.9971 53.5973C14.9971 53.5973 12.5619 56.0325 10.1267 53.5973C7.69144 51.1621 10.1267 48.7268 10.1267 48.7268L12.5619 46.2916C12.5619 46.2916 14.9971 43.8564 17.4323 46.2916C19.8676 48.7268 17.4323 51.1621 17.4323 51.1621L14.9971 53.5973ZM27.5556 55.1111C27.5556 55.1111 27.5556 51.6667 31 51.6667C34.4444 51.6667 34.4444 55.1111 34.4444 55.1111V58.5556C34.4444 58.5556 34.4444 62 31 62C27.5556 62 27.5556 58.5556 27.5556 58.5556V55.1111Z" fill="#FFAC33"/>
<path d="M30.9996 48.2223C40.5111 48.2223 48.2218 40.5116 48.2218 31.0001C48.2218 21.4885 40.5111 13.7778 30.9996 13.7778C21.488 13.7778 13.7773 21.4885 13.7773 31.0001C13.7773 40.5116 21.488 48.2223 30.9996 48.2223Z" fill="#FFAC33"/>
</svg>
