<svg width="24" height="24" viewBox="0 0 24 24" fill="none" xmlns="http://www.w3.org/2000/svg">
<path d="M24 12C24 18.627 18.627 24 12 24C5.37296 24 0 18.627 0 12C0 5.37296 5.37296 0 12 0C18.6284 0 24 5.37296 24 12Z" fill="#2081E2"/>
<path d="M5.92033 12.4032L5.97212 12.3218L9.0938 7.43836C9.1394 7.36684 9.24668 7.37425 9.28119 7.45191C9.80271 8.62071 10.2527 10.0743 10.0419 10.9792C9.95188 11.3515 9.70532 11.8558 9.42791 12.3218C9.39215 12.3896 9.35271 12.4562 9.31079 12.5203C9.29105 12.5499 9.25777 12.5672 9.22201 12.5672H6.01156C5.92527 12.5672 5.87473 12.4735 5.92033 12.4032Z" fill="white"/>
<path d="M19.8347 13.3106V14.0836C19.8347 14.128 19.8076 14.1675 19.7681 14.1847C19.5265 14.2883 18.6992 14.668 18.3552 15.1464C17.4774 16.3682 16.8067 18.1152 15.3075 18.1152H9.05311C6.83636 18.1152 5.04004 16.3127 5.04004 14.0886V14.0171C5.04004 13.9579 5.08812 13.9098 5.14732 13.9098H8.63391C8.70295 13.9098 8.75351 13.9739 8.74735 14.0417C8.72268 14.2686 8.7646 14.5004 8.87185 14.7112C9.079 15.1316 9.50804 15.3942 9.97161 15.3942H11.6976V14.0467H9.99132C9.9038 14.0467 9.85201 13.9456 9.90257 13.874C9.92105 13.8457 9.94201 13.8161 9.9642 13.7828C10.1257 13.5535 10.3563 13.1972 10.5856 12.7916C10.7421 12.5179 10.8938 12.2257 11.0159 11.9323C11.0405 11.8792 11.0603 11.825 11.08 11.772C11.1133 11.6783 11.1478 11.5907 11.1724 11.5032C11.1971 11.4292 11.2168 11.3516 11.2365 11.2788C11.2945 11.0298 11.3192 10.7659 11.3192 10.4922C11.3192 10.385 11.3142 10.2728 11.3044 10.1655C11.2994 10.0484 11.2846 9.93127 11.2698 9.81415C11.26 9.71057 11.2415 9.60825 11.2217 9.501C11.1971 9.34441 11.1626 9.18908 11.1231 9.03249L11.1096 8.97332C11.08 8.86607 11.0553 8.76372 11.0208 8.65647C10.9234 8.31988 10.8112 7.99193 10.6928 7.68495C10.6497 7.56289 10.6004 7.44577 10.5511 7.32865C10.4783 7.15233 10.4043 6.99207 10.3365 6.84041C10.302 6.77137 10.2724 6.70849 10.2428 6.64439C10.2096 6.57164 10.175 6.49892 10.1405 6.42985C10.1159 6.37684 10.0875 6.32753 10.0678 6.27823L9.85695 5.88863C9.82735 5.83561 9.87668 5.77273 9.9346 5.78876L11.2538 6.14631H11.2575C11.26 6.14631 11.2612 6.14753 11.2624 6.14753L11.4363 6.19561L11.6274 6.24985L11.6976 6.26959V5.48548C11.6976 5.10697 12.0009 4.79999 12.3757 4.79999C12.5631 4.79999 12.7333 4.87641 12.8553 5.00095C12.9774 5.12548 13.0538 5.29561 13.0538 5.48548V6.64932L13.1944 6.68876C13.2055 6.69247 13.2166 6.6974 13.2264 6.70479C13.2609 6.73068 13.3103 6.76892 13.3731 6.81575C13.4225 6.85521 13.4755 6.90329 13.5396 6.9526C13.6666 7.05495 13.8182 7.18687 13.9847 7.33849C14.029 7.37673 14.0722 7.41617 14.1116 7.45564C14.3262 7.65535 14.5666 7.88961 14.7959 8.14852C14.86 8.22124 14.9229 8.29521 14.987 8.37289C15.0511 8.4518 15.1189 8.52948 15.1781 8.60716C15.2558 8.71071 15.3396 8.81796 15.4123 8.93017C15.4469 8.98319 15.4863 9.03743 15.5196 9.09044C15.6133 9.23223 15.6959 9.37895 15.7748 9.52564C15.8081 9.59345 15.8426 9.66743 15.8722 9.74017C15.9597 9.9362 16.0288 10.1359 16.0732 10.3357C16.0867 10.3788 16.0966 10.4257 16.1015 10.4676V10.4774C16.1163 10.5366 16.1212 10.5995 16.1262 10.6636C16.1459 10.8683 16.136 11.0729 16.0917 11.2788C16.0732 11.3664 16.0485 11.4489 16.0189 11.5365C15.9893 11.6203 15.9597 11.7079 15.9215 11.7905C15.8476 11.9618 15.76 12.1332 15.6564 12.2935C15.6232 12.3527 15.5837 12.4155 15.5443 12.4747C15.5011 12.5376 15.4567 12.5968 15.4173 12.6547C15.363 12.7287 15.3051 12.8064 15.2459 12.8754C15.1929 12.9481 15.1386 13.0209 15.0795 13.085C14.9969 13.1824 14.918 13.2749 14.8353 13.3636C14.786 13.4216 14.733 13.4808 14.6788 13.5338C14.6257 13.5929 14.5715 13.646 14.5222 13.6953C14.4396 13.7779 14.3705 13.842 14.3126 13.895L14.177 14.0195C14.1573 14.0368 14.1314 14.0467 14.1043 14.0467H13.0538V15.3942H14.3755C14.6714 15.3942 14.9525 15.2894 15.1793 15.0971C15.257 15.0293 15.596 14.7358 15.9967 14.2932C16.0103 14.2784 16.0276 14.2673 16.0473 14.2624L19.6979 13.2071C19.7657 13.1873 19.8347 13.2391 19.8347 13.3106Z" fill="white"/>
</svg>
